<?xml version="1.0" encoding="UTF-8" standalone="no"?>
<svg width="1024px" height="1024px" viewBox="0 0 1024 1024" version="1.1" xmlns="http://www.w3.org/2000/svg" xmlns:xlink="http://www.w3.org/1999/xlink">
    <!-- Generator: Sketch 3.6.1 (26313) - http://www.bohemiancoding.com/sketch -->
    <title>icon_512x512@2x</title>
    <desc>Created with Sketch.</desc>
    <defs></defs>
    <g id="Forcir-Logo-/-Icons" stroke="none" stroke-width="1" fill="none" fill-rule="evenodd">
        <g id="icon_512x512@2x" fill="#141823">
            <g id="mountain" transform="translate(103.000000, 299.000000)">
                <g id="Group">
                    <path d="M816.461335,598.6757 L552.834118,8.9957 C550.646012,4.09808 546.612516,0.93674 542.117672,0.59276 C537.464651,0.33068 533.299341,2.78768 530.649888,7.30856 L354.691902,307.97984 L444.07471,465.21146 L206.836577,233.46722 C203.910315,230.56796 200.140446,229.35584 196.436483,230.10932 C192.745702,230.87918 189.489906,233.54912 187.473158,237.46394 L2.9341058,597.82394 C0.350559071,602.88536 0.19238274,609.25718 2.49912089,614.51516 C4.8190404,619.74038 9.24797765,623 14.0591744,623 L804.940826,623 C809.607027,623 813.930514,619.92056 816.303159,614.92466 C818.675804,609.92876 818.728529,603.73712 816.461335,598.6757 L816.461335,598.6757 Z" id="Shape"></path>
                </g>
            </g>
        </g>
    </g>
</svg>