<?xml version="1.0" encoding="UTF-8" standalone="no"?>
<svg width="1024px" height="1024px" viewBox="0 0 1024 1024" version="1.1" xmlns="http://www.w3.org/2000/svg" xmlns:xlink="http://www.w3.org/1999/xlink">
    <!-- Generator: Sketch 3.6.1 (26313) - http://www.bohemiancoding.com/sketch -->
    <title>icon_512x512@2x</title>
    <desc>Created with Sketch.</desc>
    <defs></defs>
    <g id="Page-1" stroke="none" stroke-width="1" fill="none" fill-rule="evenodd">
        <g id="icon_512x512@2x" fill="#FFFFFF">
            <g id="mountain" transform="translate(103.000000, 103.000000)">
                <g id="Group">
                    <ellipse id="Oval" cx="264.505031" cy="114.66" rx="92.269526" ry="114.66"></ellipse>
                    <path d="M816.461335,794.6757 L552.834118,204.9957 C550.646012,200.09808 546.612516,196.93674 542.117672,196.59276 C537.464651,196.33068 533.299341,198.78768 530.649888,203.30856 L354.691902,503.97984 L444.07471,661.21146 L206.836577,429.46722 C203.910315,426.56796 200.140446,425.35584 196.436483,426.10932 C192.745702,426.87918 189.489906,429.54912 187.473158,433.46394 L2.9341058,793.82394 C0.350559071,798.88536 0.19238274,805.25718 2.49912089,810.51516 C4.8190404,815.74038 9.24797765,819 14.0591744,819 L804.940826,819 C809.607027,819 813.930514,815.92056 816.303159,810.92466 C818.675804,805.92876 818.728529,799.73712 816.461335,794.6757 L816.461335,794.6757 Z" id="Shape"></path>
                </g>
            </g>
        </g>
    </g>
</svg>