<svg class="nc-icon outline" xmlns="http://www.w3.org/2000/svg" xmlns:xlink="http://www.w3.org/1999/xlink" x="0px" y="0px" width="48px" height="48px" viewBox="0 0 48 48"><g transform="translate(0, 0)">
<path fill="none" stroke="#0f0f0f" stroke-width="2" stroke-linecap="square" stroke-miterlimit="10" d="M43,40H5
	c-1.657,0-3-1.343-3-3V11c0-1.657,1.343-3,3-3h27h11c1.657,0,3,1.343,3,3v26C46,38.657,44.657,40,43,40z" stroke-linejoin="miter"></path>
<path data-color="color-2" data-stroke="none" fill="#0f0f0f" d="M29,16c-1.894,0-3.631,0.659-5.001,1.76C22.629,16.661,20.893,16,19,16
	c-4.418,0-8,3.582-8,8s3.582,8,8,8c1.896,0,3.635-0.663,5.006-1.765C25.374,31.336,27.107,32,29,32c4.418,0,8-3.582,8-8
	S33.418,16,29,16z M13,24c0-3.308,2.692-6,6-6c1.771,0,3.36,0.776,4.459,2h-1.38c-0.186,0.321-0.352,0.653-0.492,1h2.601
	c0.184,0.316,0.338,0.651,0.462,1h-3.388c-0.084,0.326-0.151,0.659-0.193,1h3.841c0.055,0.326,0.09,0.659,0.09,1h-4
	c0,0.339,0.028,0.672,0.069,1h3.841c-0.058,0.344-0.145,0.678-0.26,1h-3.388c0.088,0.342,0.194,0.677,0.325,1h2.601
	c-0.208,0.359-0.453,0.693-0.729,1h-1.38c0.158,0.273,0.337,0.534,0.525,0.786C21.599,29.544,20.353,30,19,30
	C15.692,30,13,27.308,13,24z" stroke-linejoin="miter" stroke-linecap="square"></path>
</g></svg>